<!-- Generated by IcoMoon.io -->
<svg version="1.1" xmlns="http://www.w3.org/2000/svg" width="32" height="32" viewBox="0 0 32 32">
<title>arrow_next_right_icon-1</title>
<path fill="#fff" d="M1 18.39c0.33-2.888 1.721-5.551 3.903-7.471s5-2.961 7.907-2.919h15.19l-3.26-4.6c-0.077-0.107-0.132-0.228-0.162-0.356s-0.034-0.261-0.013-0.391 0.068-0.255 0.138-0.366c0.069-0.112 0.16-0.209 0.267-0.286s0.228-0.132 0.356-0.162 0.261-0.034 0.391-0.013c0.13 0.021 0.255 0.068 0.366 0.138s0.209 0.16 0.286 0.267l4.47 6.26c0.099 0.148 0.152 0.322 0.152 0.5s-0.053 0.352-0.152 0.5l-4.47 6.26c-0.155 0.216-0.39 0.362-0.652 0.405s-0.531-0.020-0.748-0.175c-0.216-0.155-0.362-0.39-0.405-0.652s0.020-0.531 0.175-0.748l3.26-4.58h-15.19c-2.449-0.030-4.819 0.864-6.637 2.505s-2.951 3.906-3.173 6.345c-0.088 1.298 0.092 2.601 0.528 3.827s1.119 2.349 2.007 3.301c0.888 0.951 1.961 1.71 3.154 2.23s2.48 0.789 3.781 0.792h17.53c0.265 0 0.52 0.105 0.707 0.293s0.293 0.442 0.293 0.707c0 0.265-0.105 0.52-0.293 0.707s-0.442 0.293-0.707 0.293h-17.53c-1.605 0.002-3.193-0.332-4.662-0.981s-2.785-1.597-3.865-2.784c-1.080-1.188-1.9-2.588-2.407-4.111s-0.689-3.136-0.536-4.734v0z"></path>
</svg>
