<svg aria-hidden="true" style="position: absolute; width: 0; height: 0; overflow: hidden;" version="1.1" xmlns="http://www.w3.org/2000/svg" xmlns:xlink="http://www.w3.org/1999/xlink">
<defs>
<symbol id="icon-arrow_arrow-left_right_icon-1" viewBox="0 0 32 32">
<path fill="none" stroke="#fff" style="stroke: var(--color1, #fff)" stroke-linejoin="round" stroke-linecap="round" stroke-miterlimit="4" stroke-width="0.3351" d="M29.080 16h-26"></path>
<path fill="none" stroke="#fff" style="stroke: var(--color1, #fff)" stroke-linejoin="round" stroke-linecap="round" stroke-miterlimit="4" stroke-width="0.3351" d="M29.080 16l-4 5"></path>
<path fill="none" stroke="#fff" style="stroke: var(--color1, #fff)" stroke-linejoin="round" stroke-linecap="round" stroke-miterlimit="4" stroke-width="0.3351" d="M29.080 16l-4-5"></path>
</symbol>
<symbol id="icon-arrow_next_right_icon-1" viewBox="0 0 32 32">
<path fill="#fff" style="fill: var(--color1, #fff)" d="M1 18.39c0.33-2.888 1.721-5.551 3.903-7.471s5-2.961 7.907-2.919h15.19l-3.26-4.6c-0.077-0.107-0.132-0.228-0.162-0.356s-0.034-0.261-0.013-0.391 0.068-0.255 0.138-0.366c0.069-0.112 0.16-0.209 0.267-0.286s0.228-0.132 0.356-0.162 0.261-0.034 0.391-0.013c0.13 0.021 0.255 0.068 0.366 0.138s0.209 0.16 0.286 0.267l4.47 6.26c0.099 0.148 0.152 0.322 0.152 0.5s-0.053 0.352-0.152 0.5l-4.47 6.26c-0.155 0.216-0.39 0.362-0.652 0.405s-0.531-0.020-0.748-0.175c-0.216-0.155-0.362-0.39-0.405-0.652s0.020-0.531 0.175-0.748l3.26-4.58h-15.19c-2.449-0.030-4.819 0.864-6.637 2.505s-2.951 3.906-3.173 6.345c-0.088 1.298 0.092 2.601 0.528 3.827s1.119 2.349 2.007 3.301c0.888 0.951 1.961 1.71 3.154 2.23s2.48 0.789 3.781 0.792h17.53c0.265 0 0.52 0.105 0.707 0.293s0.293 0.442 0.293 0.707c0 0.265-0.105 0.52-0.293 0.707s-0.442 0.293-0.707 0.293h-17.53c-1.605 0.002-3.193-0.332-4.662-0.981s-2.785-1.597-3.865-2.784c-1.080-1.188-1.9-2.588-2.407-4.111s-0.689-3.136-0.536-4.734v0z"></path>
</symbol>
<symbol id="icon-switchrounded_switch_twirl_arrow_arrows_icon-1" viewBox="0 0 32 32">
<path fill="#fff" style="fill: var(--color1, #fff)" d="M25.764 19.357l4.111 4.11-4.111 4.111-1.327-1.328 1.964-1.964c-2.434-0.283-4.563-1.068-6.471-2.378-2.146-1.474-3.758-3.424-5.317-5.309-3.030-3.665-5.893-7.125-12.487-7.125v-1.881c3.353 0 6.172 0.818 8.618 2.5 2.144 1.473 3.756 3.422 5.318 5.307 2.625 3.177 5.129 6.201 10.043 6.949l-1.668-1.663 1.327-1.331zM21.943 11.049c1.256-0.704 2.631-1.167 4.159-1.399l-1.664 1.662 1.328 1.328 4.109-4.107-4.111-4.111-1.327 1.327 1.962 1.963c-1.984 0.229-3.757 0.791-5.375 1.698-1.116 0.625-2.681 1.668-4.889 4.187l1.413 1.238c1.126-1.284 2.529-2.741 4.394-3.786zM8.729 20.951c-1.893 1.062-4.053 1.577-6.604 1.577v1.878c2.882 0 5.343-0.594 7.523-1.817 2.112-1.188 3.657-2.782 4.889-4.187l-1.412-1.239c-1.125 1.287-2.531 2.743-4.396 3.789z"></path>
</symbol>
<symbol id="icon-arrow-right" viewBox="0 0 83 32">
<path fill="none" stroke="#fff" style="stroke: var(--color1, #fff)" stroke-linejoin="round" stroke-linecap="round" stroke-miterlimit="4" stroke-width="0.5246" d="M82.119 16h-81.836"></path>
<path fill="none" stroke="#fff" style="stroke: var(--color1, #fff)" stroke-linejoin="round" stroke-linecap="round" stroke-miterlimit="4" stroke-width="0.5246" d="M82.119 16l-12.59 15.738"></path>
<path fill="none" stroke="#fff" style="stroke: var(--color1, #fff)" stroke-linejoin="round" stroke-linecap="round" stroke-miterlimit="4" stroke-width="0.5246" d="M82.119 16l-12.59-15.738"></path>
</symbol>
</defs>
</svg>
