<!-- Generated by IcoMoon.io -->
<svg version="1.1" xmlns="http://www.w3.org/2000/svg" width="32" height="32" viewBox="0 0 32 32">
<title>switchrounded_switch_twirl_arrow_arrows_icon-1</title>
<path fill="#fff" d="M25.764 19.357l4.111 4.11-4.111 4.111-1.327-1.328 1.964-1.964c-2.434-0.283-4.563-1.068-6.471-2.378-2.146-1.474-3.758-3.424-5.317-5.309-3.030-3.665-5.893-7.125-12.487-7.125v-1.881c3.353 0 6.172 0.818 8.618 2.5 2.144 1.473 3.756 3.422 5.318 5.307 2.625 3.177 5.129 6.201 10.043 6.949l-1.668-1.663 1.327-1.331zM21.943 11.049c1.256-0.704 2.631-1.167 4.159-1.399l-1.664 1.662 1.328 1.328 4.109-4.107-4.111-4.111-1.327 1.327 1.962 1.963c-1.984 0.229-3.757 0.791-5.375 1.698-1.116 0.625-2.681 1.668-4.889 4.187l1.413 1.238c1.126-1.284 2.529-2.741 4.394-3.786zM8.729 20.951c-1.893 1.062-4.053 1.577-6.604 1.577v1.878c2.882 0 5.343-0.594 7.523-1.817 2.112-1.188 3.657-2.782 4.889-4.187l-1.412-1.239c-1.125 1.287-2.531 2.743-4.396 3.789z"></path>
</svg>
